<?xml version="1.0" encoding="utf-8" ?><svg xmlns="http://www.w3.org/2000/svg" xmlns:xlink="http://www.w3.org/1999/xlink" width="1024" height="1024" viewBox="0 0 1024 1024"><path fill="#8F1D16" transform="scale(2 2)" d="M252.093 72.765C307.662 70.984 350.814 111.079 355.365 166.156C357.216 188.567 351.28 206.859 340.202 225.94C335.618 233.836 328.044 240.936 337.583 248.876C345.484 255.453 357.111 258.263 367.204 257.285C390.064 255.071 390.64 234.792 401.231 222.055C418.403 201.403 457.266 207.333 459.725 237.01C460.2 242.74 457.982 248.035 451.508 248.255C446.61 248.421 444.942 241.962 440.111 242.303C419.159 243.782 425.659 293.969 365.883 298.546C370.069 305.374 374.257 312.574 377.83 319.709C388.301 340.618 413.652 346.5 429.462 327.685C433.137 323.31 436.27 316.56 443.223 319.758C456.248 326.602 434.414 384.034 382.735 371.046C342.162 360.849 344.113 325.263 316.462 311.894C320.571 325.547 322.606 339.388 321.03 353.712C317.697 382.777 323.304 405.265 354.767 414.86C360.736 416.965 369.326 415.147 369.899 423.882C370.986 432.967 349.545 436.557 343.284 436.611C307.872 436.913 281.176 405.186 279.433 371.365C278.031 344.175 281.14 332.05 258.065 309.128L256.131 307.263C241.465 320.091 231.829 339.897 230.921 359.268C230.639 364.105 230.869 368.918 230.703 373.767C229.479 409.552 197.376 442.043 160.382 435.724C153.895 434.616 141.192 431.31 143.221 422.35C145.214 413.551 176.97 419.691 188.757 387.847C190.756 382.419 192.993 374.143 192.32 368.279C189.624 344.798 188.458 334.771 194.401 311.894C171.532 322.21 167.902 360.444 128.04 371.141C78.4539 384.448 53.4029 321.851 70.758 318.397C81.6638 316.227 86.225 345.022 111.873 338.466C131.171 333.762 135.494 313.482 144.651 298.546C138.259 297.297 132.327 297.335 126.165 295.162C85.4158 280.796 95.2318 249.598 72.5227 241.813C68.8079 241.967 57.1918 254.66 54.0276 243.789C48.4781 224.722 69.932 207.301 90.8742 210.675C106.433 213.182 113.594 223.593 119.891 236.884C132.007 259.838 157.133 264.594 177.256 247.194C179.223 245.493 180.421 244.193 181.574 241.813C179.507 238.196 175.472 233.783 172.966 229.992C134.696 172.094 164.345 90.4184 233.293 75.2328C240.019 73.7513 245.29 73.5327 252.093 72.765ZM300.689 192.456C305.41 190.857 305.366 185.452 299.839 185.026C294.983 186.285 295.277 192.494 300.689 192.456Z"/><defs><linearGradient id="gradient_0" gradientUnits="userSpaceOnUse" x1="76.571739" y1="316.88593" x2="423.52493" y2="183.87379"><stop offset="0" stop-color="#FF2D20"/><stop offset="1" stop-color="#FF6B5E"/></linearGradient></defs><path fill="url(#gradient_0)" transform="scale(2 2)" d="M72.5227 227.228C82.2494 220.491 98.6185 224.673 104.09 234.75C109.639 244.97 111.757 251.939 121.121 260.039C142.2 278.271 172.053 273.305 190.278 253.766C200.955 242.318 192.743 234.577 186.329 225.475C147.31 170.113 179.812 92.1456 249.415 86.63C304.591 81.9468 344.855 127.392 342.115 180.899C340.831 205.985 317.365 229.636 319.274 242.759C323.984 275.133 386.697 284.761 404.612 244.995C410.718 231.442 416.384 220.933 434.054 224.14C437.228 224.716 439.285 226.211 441.781 228.362C408.549 228.728 415.837 270.4 380.898 282.086C360.031 289.066 338.213 282.867 320.78 270.511C317.852 268.449 310.431 261.201 308.222 260.313L308.222 260.313C311.296 266.179 323.501 275.922 328.761 280.392C341.012 290.802 351.198 300.957 359.462 314.9C364.162 322.829 367.96 331.765 374.52 338.364C390.956 355.616 408.386 356.161 427.43 344.622C418.993 353.679 411.848 359.115 398.746 359.786C360.369 361.749 355.962 327.466 335.999 308.302C324.575 297.336 307.655 293.29 293.661 282.503C300.668 282.837 305.582 280.729 308.978 274.279C292.064 282.37 286.923 277.234 277.783 260.313C279.015 267.979 280.469 271.004 283.517 278.033L283.517 278.033C282.554 277.771 259.096 300.537 256.131 264.369C254.205 272.108 253.778 280.709 245.452 284.685C238.178 288.159 233.77 279.676 228.73 278.033C231.545 270.772 232.696 267.932 234.05 260.313C226.558 274.962 214.179 287.102 202.387 269.434C203.671 279.344 207.841 284.001 218.457 281.134C203.492 292.178 185.847 298.338 173.541 311.009C163.177 321.68 157.849 334.767 146.741 345.006C129.611 360.795 104.219 365.786 87.3199 346.777C109.583 360.587 132.721 349.094 144.925 327.349C159.783 300.065 159.185 295.827 187.106 277.418C190.385 275.256 206.826 261.352 207.439 257.515C207.171 257.587 202.538 262.486 201.765 263.222C175.742 287.988 122.686 296.473 103.528 259.169C94.6846 241.949 95.1935 234.38 72.5227 227.228ZM300.689 192.456C305.41 190.857 305.366 185.452 299.839 185.026C294.983 186.285 295.277 192.494 300.689 192.456Z"/><path fill="#3A0B08" transform="scale(2 2)" d="M308.222 260.313C306.441 258.631 305.373 257.783 304.043 255.693L304.226 255.707C306.076 257.424 306.694 258.261 308.222 260.313L308.222 260.313Z"/><path fill="#FAF9F9" transform="scale(2 2)" d="M211.623 175.44C222.425 174.434 232.006 182.356 233.048 193.155C234.091 203.954 226.202 213.562 215.406 214.641C204.559 215.725 194.895 207.79 193.847 196.939C192.8 186.088 200.768 176.45 211.623 175.44Z"/><path fill="#28282A" transform="scale(2 2)" d="M212.574 181.588C220.017 181.2 226.375 186.898 226.803 194.339C227.23 201.78 221.566 208.168 214.128 208.635C206.633 209.105 200.186 203.389 199.756 195.893C199.325 188.396 205.075 181.979 212.574 181.588Z"/><path fill="#FAF9F9" transform="scale(2 2)" d="M214.788 184.897C216.836 184.404 218.899 185.656 219.408 187.701C219.917 189.745 218.681 191.817 216.641 192.342C214.577 192.873 212.477 191.62 211.963 189.553C211.448 187.486 212.717 185.396 214.788 184.897Z"/><path fill="#FAF9F9" transform="scale(2 2)" d="M294.862 176.306C305.388 174.836 315.136 182.113 316.719 192.623C318.302 203.133 311.13 212.958 300.638 214.654C293.749 215.768 286.794 213.094 282.425 207.654C278.055 202.214 276.945 194.846 279.518 188.36C282.092 181.874 287.951 177.27 294.862 176.306ZM300.689 192.456C305.41 190.857 305.366 185.452 299.839 185.026C294.983 186.285 295.277 192.494 300.689 192.456Z"/><path fill="#28282A" transform="scale(2 2)" d="M296.292 182.293C303.586 181.595 310.068 186.933 310.781 194.226C311.494 201.518 306.169 208.011 298.878 208.739C291.566 209.469 285.051 204.125 284.335 196.812C283.62 189.499 288.977 182.994 296.292 182.293ZM300.689 192.456C305.41 190.857 305.366 185.452 299.839 185.026C294.983 186.285 295.277 192.494 300.689 192.456Z"/><path fill="#FAF9F9" transform="scale(2 2)" d="M301.252 185.101C303.289 184.653 305.314 185.922 305.785 187.96C306.257 189.998 305.012 192.041 302.982 192.541C300.931 193.046 298.87 191.777 298.393 189.723C297.916 187.668 299.196 185.588 301.252 185.101Z"/><path fill="#FF493D" transform="scale(2 2)" d="M228.73 278.033C228.972 278.324 228.909 278.183 229.002 278.553C232.231 291.444 241.798 291.976 252.093 286.71C237.203 307.039 220.131 326.278 216.944 351.953C213.74 377.756 220.998 393.317 194.401 413.707C189.353 417.356 183.245 419.984 177.445 422.205C192.439 411.7 200.306 401.119 205.052 383.396C208.296 371.281 206.915 367.197 205.147 355.232C200.302 322.434 213.92 305.632 228.73 278.033Z"/><path fill="#FF493D" transform="scale(2 2)" d="M283.517 278.033L283.517 278.033C296.027 297.901 308.457 326.782 307.005 350.035C306.46 358.761 303.928 366.961 304.969 375.663C307.167 396.713 317.616 408.751 332.904 421.12C311.41 412.746 295.009 397.245 294.843 372.264C294.52 323.577 286.309 325.279 260.332 286.71C273.775 292.389 277.233 291.369 283.517 278.033Z"/></svg>